<svg width="902" height="1037" viewBox="0 0 902 1037" fill="none" xmlns="http://www.w3.org/2000/svg">
<path d="M59.4688 931.076C59.4688 933.692 58.1071 935 55.3838 935C53.0546 935 51.7467 933.835 51.46 931.506L44.5263 879.476L35.2812 915.274C34.6721 917.675 33.3283 918.875 31.25 918.875C29.1717 918.875 27.8279 917.675 27.2188 915.274L17.9738 879.476L11.04 931.506C10.7533 933.835 9.44542 935 7.11625 935C4.39292 935 3.03125 933.692 3.03125 931.076C3.03125 930.861 3.04917 930.646 3.085 930.431L12.7063 858.352C13.0288 855.701 14.3725 854.375 16.7375 854.375C18.8158 854.375 20.1596 855.54 20.7688 857.869L31.25 898.665L41.7313 857.869C42.3404 855.54 43.6483 854.375 45.655 854.375C48.0917 854.375 49.4713 855.701 49.7938 858.352L59.415 930.431C59.4508 930.646 59.4688 930.861 59.4688 931.076ZM121.281 909.469C121.281 916.528 118.791 922.548 113.81 927.529C108.829 932.51 102.809 935 95.75 935C88.6908 935 82.6708 932.51 77.69 927.529C72.7092 922.548 70.2188 916.528 70.2188 909.469V858.406C70.2188 855.719 71.5625 854.375 74.25 854.375C76.9375 854.375 78.2813 855.719 78.2813 858.406V909.469C78.2813 914.27 79.9833 918.391 83.3875 921.831C86.8275 925.235 90.9483 926.938 95.75 926.938C100.552 926.938 104.655 925.235 108.059 921.831C111.499 918.391 113.219 914.27 113.219 909.469V858.406C113.219 855.719 114.563 854.375 117.25 854.375C119.938 854.375 121.281 855.719 121.281 858.406V909.469ZM188.469 930.969C188.469 933.656 187.125 935 184.438 935H141.438C138.75 935 137.406 933.674 137.406 931.022V858.406C137.406 855.719 138.75 854.375 141.438 854.375C144.125 854.375 145.469 855.719 145.469 858.406V926.938H184.438C187.125 926.938 188.469 928.281 188.469 930.969ZM252.969 858.406C252.969 861.094 251.625 862.438 248.938 862.438H228.781V930.969C228.781 933.656 227.438 935 224.75 935C222.062 935 220.719 933.656 220.719 930.969V862.438H200.562C197.875 862.438 196.531 861.094 196.531 858.406C196.531 855.719 197.875 854.375 200.562 854.375H248.938C251.625 854.375 252.969 855.719 252.969 858.406ZM309.406 930.969C309.406 933.656 308.062 935 305.375 935H273.125C270.438 935 269.094 933.656 269.094 930.969C269.094 928.281 270.438 926.938 273.125 926.938H285.219V862.438H273.125C270.438 862.438 269.094 861.094 269.094 858.406C269.094 855.719 270.438 854.375 273.125 854.375H305.375C308.062 854.375 309.406 855.719 309.406 858.406C309.406 861.094 308.062 862.438 305.375 862.438H293.281V926.938H305.375C308.062 926.938 309.406 928.281 309.406 930.969ZM381.969 878.562C381.969 885.227 379.604 890.925 374.874 895.655C370.144 900.385 364.446 902.75 357.781 902.75H338.969V930.969C338.969 933.656 337.625 935 334.938 935C332.25 935 330.906 933.656 330.906 930.969V858.406C330.906 857.331 331.3 856.4 332.089 855.611C332.913 854.787 333.863 854.375 334.938 854.375H357.781C364.446 854.375 370.144 856.74 374.874 861.47C379.604 866.2 381.969 871.898 381.969 878.562ZM373.906 878.562C373.906 874.119 372.33 870.321 369.176 867.167C366.023 864.014 362.225 862.438 357.781 862.438H338.969V894.688H357.781C362.225 894.688 366.023 893.111 369.176 889.958C372.33 886.804 373.906 883.006 373.906 878.562ZM446.469 930.969C446.469 933.656 445.125 935 442.438 935H399.438C396.75 935 395.406 933.674 395.406 931.022V858.406C395.406 855.719 396.75 854.375 399.438 854.375C402.125 854.375 403.469 855.719 403.469 858.406V926.938H442.438C445.125 926.938 446.469 928.281 446.469 930.969ZM511.022 931.13C511.022 933.71 509.625 935 506.83 935C504.967 935 503.73 934.086 503.121 932.259L495.973 910.812H469.528L462.379 932.259C461.77 934.086 460.533 935 458.67 935C455.875 935 454.478 933.71 454.478 931.13C454.478 930.664 454.567 930.18 454.746 929.679L478.719 857.761C479.471 855.504 480.815 854.375 482.75 854.375C484.685 854.375 486.029 855.504 486.781 857.761L510.754 929.679C510.933 930.18 511.022 930.664 511.022 931.13ZM493.285 902.75L482.75 871.145L472.215 902.75H493.285ZM575.522 858.352C575.522 859.141 575.272 859.911 574.77 860.664L551.281 895.924V930.969C551.281 933.656 549.938 935 547.25 935C544.562 935 543.219 933.656 543.219 930.969V895.924L519.73 860.664C519.228 859.911 518.978 859.141 518.978 858.352C518.978 857.277 519.408 856.346 520.268 855.557C521.128 854.733 522.095 854.321 523.17 854.321C524.496 854.321 525.571 854.93 526.395 856.149L547.25 887.431L568.105 856.149C568.929 854.93 570.004 854.321 571.33 854.321C572.405 854.321 573.373 854.733 574.233 855.557C575.093 856.346 575.522 857.277 575.522 858.352ZM704.522 920.326C704.522 921.115 704.218 921.957 703.609 922.853C701.1 926.436 697.696 929.356 693.396 931.614C689.132 933.871 684.796 935 680.389 935C670.678 935 662.687 930.593 656.416 921.778C650.826 913.858 648.031 904.828 648.031 894.688C648.031 884.547 650.826 875.517 656.416 867.597C662.687 858.782 670.678 854.375 680.389 854.375C684.796 854.375 689.132 855.504 693.396 857.761C697.696 860.019 701.1 862.939 703.609 866.522C704.218 867.418 704.522 868.26 704.522 869.049C704.522 870.124 704.093 871.073 703.233 871.897C702.408 872.722 701.441 873.134 700.33 873.134C699.649 873.134 698.825 872.811 697.858 872.166C696.926 871.485 696.37 870.84 696.191 870.231C696.155 870.16 695.779 869.747 695.063 868.995C690.691 864.623 685.8 862.438 680.389 862.438C675.408 862.438 670.839 864.355 666.683 868.189C662.992 871.557 660.233 875.803 658.405 880.927C656.864 885.227 656.094 889.814 656.094 894.688C656.094 899.561 656.864 904.147 658.405 908.447C660.233 913.572 662.974 917.818 666.629 921.186C670.785 925.02 675.372 926.938 680.389 926.938C685.764 926.938 690.655 924.752 695.063 920.38C695.385 920.129 695.761 919.735 696.191 919.197C696.227 918.66 696.765 918.033 697.804 917.316C698.879 916.6 699.721 916.241 700.33 916.241C701.441 916.241 702.408 916.653 703.233 917.477C704.093 918.302 704.522 919.251 704.522 920.326ZM768.969 894.688C768.969 904.327 766.711 913.088 762.196 920.971C756.821 930.324 749.673 935 740.75 935C731.828 935 724.679 930.324 719.304 920.971C714.789 913.088 712.531 904.327 712.531 894.688C712.531 885.048 714.789 876.287 719.304 868.404C724.679 859.051 731.828 854.375 740.75 854.375C749.673 854.375 756.821 859.051 762.196 868.404C766.711 876.287 768.969 885.048 768.969 894.688ZM760.906 894.688C760.906 889.993 760.315 885.586 759.133 881.465C757.735 876.592 755.585 872.399 752.683 868.888C749.099 864.588 745.122 862.438 740.75 862.438C736.378 862.438 732.401 864.588 728.817 868.888C725.915 872.399 723.765 876.592 722.368 881.465C721.185 885.586 720.594 889.993 720.594 894.688C720.594 899.382 721.185 903.789 722.368 907.91C723.765 912.783 725.915 916.976 728.817 920.487C732.401 924.787 736.378 926.938 740.75 926.938C745.122 926.938 749.099 924.787 752.683 920.487C755.585 916.976 757.735 912.783 759.133 907.91C760.315 903.789 760.906 899.382 760.906 894.688ZM833.522 930.915C833.522 932.026 833.11 932.993 832.286 933.817C831.462 934.642 830.495 935.054 829.384 935.054C828.345 935.054 827.413 934.642 826.589 933.817L794.876 902.105C793.694 900.922 793.103 899.812 793.103 898.772C793.103 896.049 794.715 894.688 797.94 894.688H809.281C813.725 894.688 817.523 893.111 820.676 889.958C823.83 886.804 825.406 883.006 825.406 878.562C825.406 874.119 823.83 870.321 820.676 867.167C817.523 864.014 813.725 862.438 809.281 862.438H790.469V930.969C790.469 933.656 789.125 935 786.438 935C783.75 935 782.406 933.656 782.406 930.969V858.352C782.406 855.701 783.732 854.375 786.384 854.375H809.281C815.946 854.375 821.644 856.74 826.374 861.47C831.104 866.2 833.469 871.898 833.469 878.562C833.469 885.227 831.104 890.925 826.374 895.655C821.644 900.385 815.946 902.75 809.281 902.75H806.916L832.286 928.12C833.11 928.944 833.522 929.876 833.522 930.915ZM897.969 930.969C897.969 933.656 896.625 935 893.938 935H850.938C849.863 935 848.913 934.606 848.089 933.817C847.3 932.993 846.906 932.044 846.906 930.969V858.406C846.906 857.331 847.3 856.4 848.089 855.611C848.913 854.787 849.863 854.375 850.938 854.375H893.938C896.625 854.375 897.969 855.719 897.969 858.406C897.969 861.094 896.625 862.438 893.938 862.438H854.969V890.656H893.938C896.625 890.656 897.969 892 897.969 894.688C897.969 897.375 896.625 898.719 893.938 898.719H854.969V926.938H893.938C896.625 926.938 897.969 928.281 897.969 930.969Z" fill="white"/>
<path fill-rule="evenodd" clip-rule="evenodd" d="M332.511 664.716C353.965 657.383 377.421 655.309 400.007 653.333C449.834 648.974 486.693 605.047 482.334 555.22C477.54 500.428 436.638 449.023 400.098 407.914C367.731 371.502 319.155 350.327 266.893 354.9C179.139 362.577 114.224 439.94 121.902 527.694C123.523 546.229 122.179 565.275 120.851 584.083C120.426 590.116 120.002 596.124 119.678 602.084C119.447 606.331 119.513 610.646 119.894 615.006C124.253 664.834 168.18 701.693 218.007 697.333C231.071 696.19 243.244 692.327 254.016 686.351C266.608 679.365 280.351 673.941 294.696 672.686C307.872 671.533 320.533 668.809 332.511 664.716ZM344.01 507.76C348.529 559.415 339.747 564.347 328.468 565.334C317.19 566.321 307.625 562.3 303.166 511.334C299.068 464.5 307.428 454.747 318.707 453.76C329.986 452.773 339.49 456.106 344.01 507.76ZM258.424 516.252C262.943 567.906 254.161 572.839 242.883 573.826C231.604 574.812 222.039 570.791 217.58 519.825C213.483 472.992 221.843 463.238 233.121 462.252C244.4 461.265 253.905 464.597 258.424 516.252Z" fill="#5EFF97"/>
<path fill-rule="evenodd" clip-rule="evenodd" d="M720.93 195.934C723.836 205.327 733.168 212 743 212C787.183 212 823 247.818 823 292C823 311.202 816.235 328.824 804.958 342.613C791.805 358.694 780.458 378.084 778.763 398.79C778.738 399.092 778.712 399.395 778.686 399.697C771.008 487.452 693.646 552.367 605.891 544.689C518.137 537.012 453.222 459.649 460.9 371.895C461.053 370.139 461.235 368.392 461.444 366.654C463.758 347.412 457.467 327.669 449.236 310.122C444.595 300.227 442 289.169 442 277.501C442 235.251 476.026 201.001 518 201.001C532.627 201.001 547.943 192.574 554.883 179.699C570.196 151.291 600.108 132 634.5 132C675.109 132 709.47 158.893 720.93 195.934ZM654.218 402.74C652.331 409.335 645.474 413.184 638.853 411.344C632.202 409.496 628.308 402.605 630.157 395.954L630.16 395.941C630.157 395.954 630.159 395.948 630.16 395.941L630.172 395.901L630.19 395.836C630.204 395.788 630.22 395.733 630.238 395.671C630.275 395.546 630.322 395.39 630.38 395.206C630.495 394.838 630.654 394.355 630.86 393.774C631.272 392.616 631.879 391.051 632.72 389.222C634.387 385.6 637.061 380.744 641.11 375.932C649.477 365.989 663.631 356.506 684.93 358.369C706.23 360.233 718.522 372.03 725.036 383.275C728.187 388.716 729.978 393.963 730.99 397.82C731.501 399.767 731.827 401.414 732.031 402.626C732.133 403.233 732.206 403.736 732.255 404.119C732.28 404.31 732.3 404.472 732.314 404.601C732.322 404.666 732.328 404.723 732.333 404.772L732.34 404.839L732.344 404.881C732.345 404.888 732.34 404.839 732.34 404.839L732.345 404.894C733.011 411.765 727.98 417.875 721.109 418.541C714.269 419.203 708.184 414.222 707.471 407.399L707.465 407.35L707.458 407.298C707.444 407.193 707.418 407.016 707.378 406.777C707.282 406.206 707.106 405.299 706.808 404.164C706.203 401.856 705.151 398.824 703.403 395.806C700.117 390.133 694.377 384.291 682.752 383.274C671.126 382.257 664.459 387.013 660.238 392.029C657.992 394.698 656.43 397.502 655.433 399.669C654.943 400.735 654.612 401.598 654.418 402.143C654.322 402.414 654.261 402.603 654.233 402.693L654.218 402.74ZM522.299 401.147C528.919 402.987 535.777 399.138 537.663 392.543L537.678 392.495C537.706 392.405 537.767 392.217 537.863 391.946C538.057 391.401 538.388 390.538 538.878 389.472C539.875 387.305 541.437 384.501 543.683 381.832C547.905 376.816 554.572 372.06 566.197 373.077C577.822 374.094 583.562 379.935 586.848 385.609C588.596 388.627 589.648 391.659 590.253 393.967C590.551 395.102 590.727 396.009 590.823 396.579C590.871 396.863 590.898 397.059 590.91 397.153L590.917 397.202C591.629 404.025 597.714 409.006 604.554 408.343C611.425 407.678 616.456 401.568 615.791 394.697L615.788 394.671C615.785 394.642 615.79 394.69 615.789 394.684L615.788 394.671L615.785 394.642L615.778 394.575C615.773 394.526 615.767 394.469 615.76 394.404C615.745 394.274 615.726 394.113 615.701 393.922C615.651 393.539 615.579 393.036 615.476 392.429C615.272 391.216 614.946 389.57 614.435 387.623C613.423 383.766 611.633 378.519 608.481 373.078C601.967 361.832 589.676 350.035 568.376 348.172C547.076 346.308 532.923 355.792 524.555 365.735C520.506 370.546 517.832 375.402 516.166 379.025C515.324 380.854 514.717 382.419 514.306 383.577C514.099 384.158 513.941 384.641 513.825 385.009C513.8 385.088 513.778 385.162 513.757 385.23C513.729 385.321 513.704 385.402 513.683 385.474C513.673 385.51 513.663 385.545 513.653 385.576C513.647 385.598 513.641 385.619 513.635 385.638L513.617 385.703L513.609 385.731L513.606 385.744C513.604 385.75 513.66 385.554 513.653 385.576L513.602 385.756C511.754 392.408 515.647 399.298 522.299 401.147Z" fill="#FF5F5F"/>
<path fill-rule="evenodd" clip-rule="evenodd" d="M407.23 171.151C408.797 179.285 403.472 187.15 395.337 188.717C375.677 192.503 356.804 198.495 338.983 206.427C331.415 209.795 322.549 206.391 319.18 198.822C315.811 191.254 319.216 182.388 326.785 179.019C346.668 170.169 367.729 163.482 389.664 159.258C397.799 157.691 405.663 163.016 407.23 171.151ZM243.346 255.962C249.685 261.295 250.502 270.757 245.169 277.097C232.502 292.156 221.509 308.662 212.473 326.33C208.701 333.706 199.664 336.627 192.288 332.855C184.913 329.083 181.991 320.046 185.764 312.67C195.841 292.965 208.097 274.564 222.211 257.785C227.544 251.446 237.006 250.629 243.346 255.962ZM677.629 594.343C684.343 599.196 685.852 608.573 680.999 615.287C667.541 633.907 651.934 650.87 634.543 665.812C628.259 671.21 618.789 670.493 613.39 664.209C607.991 657.925 608.709 648.455 614.993 643.056C630.602 629.645 644.609 614.422 656.685 597.714C661.538 590.999 670.914 589.49 677.629 594.343ZM524.259 709.879C526.193 717.935 521.231 726.033 513.175 727.967C491.292 733.221 468.461 736 445.001 736C436.716 736 430.001 729.284 430.001 721C430.001 712.716 436.716 706 445.001 706C466.084 706 486.565 703.503 506.171 698.796C514.227 696.862 522.325 701.824 524.259 709.879Z" fill="#E0E0E0"/>
<path d="M63.7207 1018.72C59.8007 1018.72 56.3607 1017.82 53.4007 1016.02C50.4407 1014.18 48.1407 1011.64 46.5007 1008.4C44.8607 1005.12 44.0407 1001.34 44.0407 997.06C44.0407 992.78 44.8607 989 46.5007 985.72C48.1807 982.44 50.5407 979.88 53.5807 978.04C56.6607 976.2 60.2807 975.28 64.4407 975.28C69.1607 975.28 73.0807 976.42 76.2007 978.7C79.3607 980.98 81.4007 984.12 82.3207 988.12H76.5007C75.9407 985.6 74.6007 983.6 72.4807 982.12C70.4007 980.64 67.7207 979.9 64.4407 979.9C61.3607 979.9 58.6807 980.6 56.4007 982C54.1207 983.36 52.3407 985.32 51.0607 987.88C49.8207 990.44 49.2007 993.5 49.2007 997.06C49.2007 1000.62 49.8207 1003.68 51.0607 1006.24C52.3007 1008.8 54.0207 1010.78 56.2207 1012.18C58.4207 1013.54 60.9807 1014.22 63.9007 1014.22C68.3807 1014.22 71.7607 1012.92 74.0407 1010.32C76.3207 1007.68 77.6207 1004.08 77.9407 999.52H65.8207V995.56H83.1007V1018H78.4807L78.0607 1011.1C76.5407 1013.54 74.6807 1015.42 72.4807 1016.74C70.2807 1018.06 67.3607 1018.72 63.7207 1018.72ZM104.331 1018.72C101.531 1018.72 99.0109 1018.08 96.7709 1016.8C94.5309 1015.52 92.7509 1013.72 91.4309 1011.4C90.1509 1009.04 89.5109 1006.28 89.5109 1003.12C89.5109 999.96 90.1709 997.22 91.4909 994.9C92.8109 992.54 94.5909 990.72 96.8309 989.44C99.1109 988.16 101.651 987.52 104.451 987.52C107.251 987.52 109.771 988.16 112.011 989.44C114.251 990.72 116.011 992.54 117.291 994.9C118.611 997.22 119.271 999.96 119.271 1003.12C119.271 1006.28 118.611 1009.04 117.291 1011.4C115.971 1013.72 114.171 1015.52 111.891 1016.8C109.651 1018.08 107.131 1018.72 104.331 1018.72ZM104.331 1014.4C106.051 1014.4 107.651 1013.98 109.131 1013.14C110.611 1012.3 111.811 1011.04 112.731 1009.36C113.651 1007.68 114.111 1005.6 114.111 1003.12C114.111 1000.64 113.651 998.56 112.731 996.88C111.851 995.2 110.671 993.94 109.191 993.1C107.711 992.26 106.131 991.84 104.451 991.84C102.731 991.84 101.131 992.26 99.6509 993.1C98.1709 993.94 96.9709 995.2 96.0509 996.88C95.1309 998.56 94.6709 1000.64 94.6709 1003.12C94.6709 1005.6 95.1309 1007.68 96.0509 1009.36C96.9709 1011.04 98.1509 1012.3 99.5909 1013.14C101.071 1013.98 102.651 1014.4 104.331 1014.4ZM139.779 1018.72C136.819 1018.72 134.219 1018.04 131.979 1016.68C129.779 1015.32 128.059 1013.46 126.819 1011.1C125.619 1008.74 125.019 1006.06 125.019 1003.06C125.019 1000.06 125.639 997.4 126.879 995.08C128.119 992.72 129.839 990.88 132.039 989.56C134.239 988.2 136.839 987.52 139.839 987.52C142.279 987.52 144.439 988.02 146.319 989.02C148.199 990.02 149.659 991.42 150.699 993.22V974.8H155.739V1018H151.179L150.699 1013.08C149.739 1014.52 148.359 1015.82 146.559 1016.98C144.759 1018.14 142.499 1018.72 139.779 1018.72ZM140.319 1014.34C142.319 1014.34 144.079 1013.88 145.599 1012.96C147.159 1012 148.359 1010.68 149.199 1009C150.079 1007.32 150.519 1005.36 150.519 1003.12C150.519 1000.88 150.079 998.92 149.199 997.24C148.359 995.56 147.159 994.26 145.599 993.34C144.079 992.38 142.319 991.9 140.319 991.9C138.359 991.9 136.599 992.38 135.039 993.34C133.519 994.26 132.319 995.56 131.439 997.24C130.599 998.92 130.179 1000.88 130.179 1003.12C130.179 1005.36 130.599 1007.32 131.439 1009C132.319 1010.68 133.519 1012 135.039 1012.96C136.599 1013.88 138.359 1014.34 140.319 1014.34ZM177.514 1018.72C174.714 1018.72 172.194 1018.08 169.954 1016.8C167.714 1015.52 165.934 1013.72 164.614 1011.4C163.334 1009.04 162.694 1006.28 162.694 1003.12C162.694 999.96 163.354 997.22 164.674 994.9C165.994 992.54 167.774 990.72 170.014 989.44C172.294 988.16 174.834 987.52 177.634 987.52C180.434 987.52 182.954 988.16 185.194 989.44C187.434 990.72 189.194 992.54 190.474 994.9C191.794 997.22 192.454 999.96 192.454 1003.12C192.454 1006.28 191.794 1009.04 190.474 1011.4C189.154 1013.72 187.354 1015.52 185.074 1016.8C182.834 1018.08 180.314 1018.72 177.514 1018.72ZM177.514 1014.4C179.234 1014.4 180.834 1013.98 182.314 1013.14C183.794 1012.3 184.994 1011.04 185.914 1009.36C186.834 1007.68 187.294 1005.6 187.294 1003.12C187.294 1000.64 186.834 998.56 185.914 996.88C185.034 995.2 183.854 993.94 182.374 993.1C180.894 992.26 179.314 991.84 177.634 991.84C175.914 991.84 174.314 992.26 172.834 993.1C171.354 993.94 170.154 995.2 169.234 996.88C168.314 998.56 167.854 1000.64 167.854 1003.12C167.854 1005.6 168.314 1007.68 169.234 1009.36C170.154 1011.04 171.334 1012.3 172.774 1013.14C174.254 1013.98 175.834 1014.4 177.514 1014.4ZM210.05 1018C207.33 1018 205.19 1017.34 203.63 1016.02C202.07 1014.7 201.29 1012.32 201.29 1008.88V992.5H196.13V988.24H201.29L201.95 981.1H206.33V988.24H215.09V992.5H206.33V1008.88C206.33 1010.76 206.71 1012.04 207.47 1012.72C208.23 1013.36 209.57 1013.68 211.49 1013.68H214.61V1018H210.05ZM237.672 1018V976H243.552L258.672 1005.28L273.672 976H279.612V1018H274.572V985L260.532 1012H256.752L242.712 985.06V1018H237.672ZM299.033 1018.72C295.513 1018.72 292.713 1017.66 290.633 1015.54C288.553 1013.38 287.513 1010.08 287.513 1005.64V988.24H292.553V1005.1C292.553 1011.3 295.093 1014.4 300.173 1014.4C302.773 1014.4 304.913 1013.48 306.593 1011.64C308.313 1009.76 309.173 1007.1 309.173 1003.66V988.24H314.213V1018H309.653L309.293 1012.66C308.373 1014.54 306.993 1016.02 305.153 1017.1C303.353 1018.18 301.313 1018.72 299.033 1018.72ZM322.509 1018V974.8H327.549V1018H322.509ZM347.57 1018C344.85 1018 342.71 1017.34 341.15 1016.02C339.59 1014.7 338.81 1012.32 338.81 1008.88V992.5H333.65V988.24H338.81L339.47 981.1H343.85V988.24H352.61V992.5H343.85V1008.88C343.85 1010.76 344.23 1012.04 344.99 1012.72C345.75 1013.36 347.09 1013.68 349.01 1013.68H352.13V1018H347.57ZM362.073 981.64C361.073 981.64 360.233 981.32 359.553 980.68C358.913 980 358.593 979.16 358.593 978.16C358.593 977.2 358.913 976.4 359.553 975.76C360.233 975.12 361.073 974.8 362.073 974.8C363.033 974.8 363.853 975.12 364.533 975.76C365.213 976.4 365.553 977.2 365.553 978.16C365.553 979.16 365.213 980 364.533 980.68C363.853 981.32 363.033 981.64 362.073 981.64ZM359.553 1018V988.24H364.593V1018H359.553ZM373.369 1031.2V988.24H377.929L378.409 993.16C379.369 991.72 380.729 990.42 382.489 989.26C384.289 988.1 386.569 987.52 389.329 987.52C392.289 987.52 394.869 988.2 397.069 989.56C399.269 990.92 400.969 992.78 402.169 995.14C403.409 997.5 404.029 1000.18 404.029 1003.18C404.029 1006.18 403.409 1008.86 402.169 1011.22C400.969 1013.54 399.249 1015.38 397.009 1016.74C394.809 1018.06 392.229 1018.72 389.269 1018.72C386.829 1018.72 384.649 1018.22 382.729 1017.22C380.849 1016.22 379.409 1014.82 378.409 1013.02V1031.2H373.369ZM388.729 1014.34C390.729 1014.34 392.489 1013.88 394.009 1012.96C395.529 1012 396.729 1010.68 397.609 1009C398.489 1007.32 398.929 1005.36 398.929 1003.12C398.929 1000.88 398.489 998.92 397.609 997.24C396.729 995.56 395.529 994.26 394.009 993.34C392.489 992.38 390.729 991.9 388.729 991.9C386.729 991.9 384.969 992.38 383.449 993.34C381.929 994.26 380.729 995.56 379.849 997.24C378.969 998.92 378.529 1000.88 378.529 1003.12C378.529 1005.36 378.969 1007.32 379.849 1009C380.729 1010.68 381.929 1012 383.449 1012.96C384.969 1013.88 386.729 1014.34 388.729 1014.34ZM411.044 1018V974.8H416.084V1018H411.044ZM434.245 1018.72C431.765 1018.72 429.705 1018.3 428.065 1017.46C426.425 1016.62 425.205 1015.5 424.405 1014.1C423.605 1012.7 423.205 1011.18 423.205 1009.54C423.205 1006.5 424.365 1004.16 426.685 1002.52C429.005 1000.88 432.165 1000.06 436.165 1000.06H444.205V999.7C444.205 997.1 443.525 995.14 442.165 993.82C440.805 992.46 438.985 991.78 436.705 991.78C434.745 991.78 433.045 992.28 431.605 993.28C430.205 994.24 429.325 995.66 428.965 997.54H423.805C424.005 995.38 424.725 993.56 425.965 992.08C427.245 990.6 428.825 989.48 430.705 988.72C432.585 987.92 434.585 987.52 436.705 987.52C440.865 987.52 443.985 988.64 446.065 990.88C448.185 993.08 449.245 996.02 449.245 999.7V1018H444.745L444.445 1012.66C443.605 1014.34 442.365 1015.78 440.725 1016.98C439.125 1018.14 436.965 1018.72 434.245 1018.72ZM435.025 1014.46C436.945 1014.46 438.585 1013.96 439.945 1012.96C441.345 1011.96 442.405 1010.66 443.125 1009.06C443.845 1007.46 444.205 1005.78 444.205 1004.02V1003.96H436.585C433.625 1003.96 431.525 1004.48 430.285 1005.52C429.085 1006.52 428.485 1007.78 428.485 1009.3C428.485 1010.86 429.045 1012.12 430.165 1013.08C431.325 1014 432.945 1014.46 435.025 1014.46ZM459.167 1031.2L466.547 1015.12H464.807L452.987 988.24H458.447L468.287 1011.4L478.727 988.24H483.947L464.447 1031.2H459.167ZM499.834 1018.72C496.994 1018.72 494.474 1018.08 492.274 1016.8C490.074 1015.48 488.334 1013.66 487.054 1011.34C485.814 1009.02 485.194 1006.28 485.194 1003.12C485.194 1000 485.814 997.28 487.054 994.96C488.294 992.6 490.014 990.78 492.214 989.5C494.454 988.18 497.034 987.52 499.954 987.52C502.834 987.52 505.314 988.18 507.394 989.5C509.514 990.78 511.134 992.48 512.254 994.6C513.374 996.72 513.934 999 513.934 1001.44C513.934 1001.88 513.914 1002.32 513.874 1002.76C513.874 1003.2 513.874 1003.7 513.874 1004.26H490.174C490.294 1006.54 490.814 1008.44 491.734 1009.96C492.694 1011.44 493.874 1012.56 495.274 1013.32C496.714 1014.08 498.234 1014.46 499.834 1014.46C501.914 1014.46 503.654 1013.98 505.054 1013.02C506.454 1012.06 507.474 1010.76 508.114 1009.12H513.094C512.294 1011.88 510.754 1014.18 508.474 1016.02C506.234 1017.82 503.354 1018.72 499.834 1018.72ZM499.834 991.78C497.434 991.78 495.294 992.52 493.414 994C491.574 995.44 490.514 997.56 490.234 1000.36H508.954C508.834 997.68 507.914 995.58 506.194 994.06C504.474 992.54 502.354 991.78 499.834 991.78ZM520.615 1018V988.24H525.175L525.595 993.94C526.515 991.98 527.915 990.42 529.795 989.26C531.675 988.1 533.995 987.52 536.755 987.52V992.8H535.375C533.615 992.8 531.995 993.12 530.515 993.76C529.035 994.36 527.855 995.4 526.975 996.88C526.095 998.36 525.655 1000.4 525.655 1003V1018H520.615ZM558.59 1018V976H584.15V980.14H563.63V994.9H581.09V998.98H563.63V1018H558.59ZM590.341 1018V988.24H594.901L595.321 993.94C596.241 991.98 597.641 990.42 599.521 989.26C601.401 988.1 603.721 987.52 606.481 987.52V992.8H605.101C603.341 992.8 601.721 993.12 600.241 993.76C598.761 994.36 597.581 995.4 596.701 996.88C595.821 998.36 595.381 1000.4 595.381 1003V1018H590.341ZM622.038 1018.72C619.558 1018.72 617.498 1018.3 615.858 1017.46C614.218 1016.62 612.998 1015.5 612.198 1014.1C611.398 1012.7 610.998 1011.18 610.998 1009.54C610.998 1006.5 612.158 1004.16 614.478 1002.52C616.798 1000.88 619.958 1000.06 623.958 1000.06H631.998V999.7C631.998 997.1 631.318 995.14 629.958 993.82C628.598 992.46 626.778 991.78 624.498 991.78C622.538 991.78 620.838 992.28 619.398 993.28C617.998 994.24 617.118 995.66 616.758 997.54H611.598C611.798 995.38 612.518 993.56 613.758 992.08C615.038 990.6 616.618 989.48 618.498 988.72C620.378 987.92 622.378 987.52 624.498 987.52C628.658 987.52 631.778 988.64 633.858 990.88C635.978 993.08 637.038 996.02 637.038 999.7V1018H632.538L632.238 1012.66C631.398 1014.34 630.158 1015.78 628.518 1016.98C626.918 1018.14 624.758 1018.72 622.038 1018.72ZM622.818 1014.46C624.738 1014.46 626.378 1013.96 627.738 1012.96C629.138 1011.96 630.198 1010.66 630.918 1009.06C631.638 1007.46 631.998 1005.78 631.998 1004.02V1003.96H624.378C621.418 1003.96 619.318 1004.48 618.078 1005.52C616.878 1006.52 616.278 1007.78 616.278 1009.3C616.278 1010.86 616.838 1012.12 617.958 1013.08C619.118 1014 620.738 1014.46 622.818 1014.46ZM644.599 1018V988.24H649.159L649.519 992.56C650.479 990.96 651.759 989.72 653.359 988.84C654.959 987.96 656.759 987.52 658.759 987.52C661.119 987.52 663.139 988 664.819 988.96C666.539 989.92 667.859 991.38 668.779 993.34C669.819 991.54 671.239 990.12 673.039 989.08C674.879 988.04 676.859 987.52 678.979 987.52C682.539 987.52 685.379 988.6 687.499 990.76C689.619 992.88 690.679 996.16 690.679 1000.6V1018H685.699V1001.14C685.699 998.06 685.079 995.74 683.839 994.18C682.599 992.62 680.819 991.84 678.499 991.84C676.099 991.84 674.099 992.78 672.499 994.66C670.939 996.5 670.159 999.14 670.159 1002.58V1018H665.119V1001.14C665.119 998.06 664.499 995.74 663.259 994.18C662.019 992.62 660.239 991.84 657.919 991.84C655.559 991.84 653.579 992.78 651.979 994.66C650.419 996.5 649.639 999.14 649.639 1002.58V1018H644.599ZM711.651 1018.72C708.811 1018.72 706.291 1018.08 704.091 1016.8C701.891 1015.48 700.151 1013.66 698.871 1011.34C697.631 1009.02 697.011 1006.28 697.011 1003.12C697.011 1000 697.631 997.28 698.871 994.96C700.111 992.6 701.831 990.78 704.031 989.5C706.271 988.18 708.851 987.52 711.771 987.52C714.651 987.52 717.131 988.18 719.211 989.5C721.331 990.78 722.951 992.48 724.071 994.6C725.191 996.72 725.751 999 725.751 1001.44C725.751 1001.88 725.731 1002.32 725.691 1002.76C725.691 1003.2 725.691 1003.7 725.691 1004.26H701.991C702.111 1006.54 702.631 1008.44 703.551 1009.96C704.511 1011.44 705.691 1012.56 707.091 1013.32C708.531 1014.08 710.051 1014.46 711.651 1014.46C713.731 1014.46 715.471 1013.98 716.871 1013.02C718.271 1012.06 719.291 1010.76 719.931 1009.12H724.911C724.111 1011.88 722.571 1014.18 720.291 1016.02C718.051 1017.82 715.171 1018.72 711.651 1018.72ZM711.651 991.78C709.251 991.78 707.111 992.52 705.231 994C703.391 995.44 702.331 997.56 702.051 1000.36H720.771C720.651 997.68 719.731 995.58 718.011 994.06C716.291 992.54 714.171 991.78 711.651 991.78ZM737.259 1018L728.559 988.24H733.599L739.899 1011.58L746.859 988.24H752.559L759.579 1011.58L765.819 988.24H770.919L762.219 1018H757.059L749.739 993.46L742.419 1018H737.259ZM788.94 1018.72C786.14 1018.72 783.62 1018.08 781.38 1016.8C779.14 1015.52 777.36 1013.72 776.04 1011.4C774.76 1009.04 774.12 1006.28 774.12 1003.12C774.12 999.96 774.78 997.22 776.1 994.9C777.42 992.54 779.2 990.72 781.44 989.44C783.72 988.16 786.26 987.52 789.06 987.52C791.86 987.52 794.38 988.16 796.62 989.44C798.86 990.72 800.62 992.54 801.9 994.9C803.22 997.22 803.88 999.96 803.88 1003.12C803.88 1006.28 803.22 1009.04 801.9 1011.4C800.58 1013.72 798.78 1015.52 796.5 1016.8C794.26 1018.08 791.74 1018.72 788.94 1018.72ZM788.94 1014.4C790.66 1014.4 792.26 1013.98 793.74 1013.14C795.22 1012.3 796.42 1011.04 797.34 1009.36C798.26 1007.68 798.72 1005.6 798.72 1003.12C798.72 1000.64 798.26 998.56 797.34 996.88C796.46 995.2 795.28 993.94 793.8 993.1C792.32 992.26 790.74 991.84 789.06 991.84C787.34 991.84 785.74 992.26 784.26 993.1C782.78 993.94 781.58 995.2 780.66 996.88C779.74 998.56 779.28 1000.64 779.28 1003.12C779.28 1005.6 779.74 1007.68 780.66 1009.36C781.58 1011.04 782.76 1012.3 784.2 1013.14C785.68 1013.98 787.26 1014.4 788.94 1014.4ZM810.888 1018V988.24H815.448L815.868 993.94C816.788 991.98 818.188 990.42 820.068 989.26C821.948 988.1 824.268 987.52 827.028 987.52V992.8H825.648C823.888 992.8 822.268 993.12 820.788 993.76C819.308 994.36 818.128 995.4 817.248 996.88C816.368 998.36 815.928 1000.4 815.928 1003V1018H810.888ZM832.685 1018V974.8H837.725V1000.78L849.905 988.24H856.085L842.885 1001.68L857.765 1018H851.345L837.725 1002.58V1018H832.685Z" fill="white"/>
</svg>
