<svg width="902" height="1103" viewBox="0 0 902 1103" fill="none" xmlns="http://www.w3.org/2000/svg">
<path d="M59.4688 931.076C59.4688 933.692 58.1071 935 55.3838 935C53.0546 935 51.7467 933.835 51.46 931.506L44.5263 879.476L35.2812 915.274C34.6721 917.675 33.3283 918.875 31.25 918.875C29.1717 918.875 27.8279 917.675 27.2188 915.274L17.9738 879.476L11.04 931.506C10.7533 933.835 9.44542 935 7.11625 935C4.39292 935 3.03125 933.692 3.03125 931.076C3.03125 930.861 3.04917 930.646 3.085 930.431L12.7063 858.352C13.0288 855.701 14.3725 854.375 16.7375 854.375C18.8158 854.375 20.1596 855.54 20.7688 857.869L31.25 898.665L41.7313 857.869C42.3404 855.54 43.6483 854.375 45.655 854.375C48.0917 854.375 49.4713 855.701 49.7938 858.352L59.415 930.431C59.4508 930.646 59.4688 930.861 59.4688 931.076ZM121.281 909.469C121.281 916.528 118.791 922.548 113.81 927.529C108.829 932.51 102.809 935 95.75 935C88.6908 935 82.6708 932.51 77.69 927.529C72.7092 922.548 70.2188 916.528 70.2188 909.469V858.406C70.2188 855.719 71.5625 854.375 74.25 854.375C76.9375 854.375 78.2813 855.719 78.2813 858.406V909.469C78.2813 914.27 79.9833 918.391 83.3875 921.831C86.8275 925.235 90.9483 926.938 95.75 926.938C100.552 926.938 104.655 925.235 108.059 921.831C111.499 918.391 113.219 914.27 113.219 909.469V858.406C113.219 855.719 114.563 854.375 117.25 854.375C119.938 854.375 121.281 855.719 121.281 858.406V909.469ZM188.469 930.969C188.469 933.656 187.125 935 184.438 935H141.438C138.75 935 137.406 933.674 137.406 931.022V858.406C137.406 855.719 138.75 854.375 141.438 854.375C144.125 854.375 145.469 855.719 145.469 858.406V926.938H184.438C187.125 926.938 188.469 928.281 188.469 930.969ZM252.969 858.406C252.969 861.094 251.625 862.438 248.938 862.438H228.781V930.969C228.781 933.656 227.438 935 224.75 935C222.062 935 220.719 933.656 220.719 930.969V862.438H200.562C197.875 862.438 196.531 861.094 196.531 858.406C196.531 855.719 197.875 854.375 200.562 854.375H248.938C251.625 854.375 252.969 855.719 252.969 858.406ZM309.406 930.969C309.406 933.656 308.062 935 305.375 935H273.125C270.438 935 269.094 933.656 269.094 930.969C269.094 928.281 270.438 926.938 273.125 926.938H285.219V862.438H273.125C270.438 862.438 269.094 861.094 269.094 858.406C269.094 855.719 270.438 854.375 273.125 854.375H305.375C308.062 854.375 309.406 855.719 309.406 858.406C309.406 861.094 308.062 862.438 305.375 862.438H293.281V926.938H305.375C308.062 926.938 309.406 928.281 309.406 930.969ZM381.969 878.562C381.969 885.227 379.604 890.925 374.874 895.655C370.144 900.385 364.446 902.75 357.781 902.75H338.969V930.969C338.969 933.656 337.625 935 334.938 935C332.25 935 330.906 933.656 330.906 930.969V858.406C330.906 857.331 331.3 856.4 332.089 855.611C332.913 854.787 333.863 854.375 334.938 854.375H357.781C364.446 854.375 370.144 856.74 374.874 861.47C379.604 866.2 381.969 871.898 381.969 878.562ZM373.906 878.562C373.906 874.119 372.33 870.321 369.176 867.167C366.023 864.014 362.225 862.438 357.781 862.438H338.969V894.688H357.781C362.225 894.688 366.023 893.111 369.176 889.958C372.33 886.804 373.906 883.006 373.906 878.562ZM446.469 930.969C446.469 933.656 445.125 935 442.438 935H399.438C396.75 935 395.406 933.674 395.406 931.022V858.406C395.406 855.719 396.75 854.375 399.438 854.375C402.125 854.375 403.469 855.719 403.469 858.406V926.938H442.438C445.125 926.938 446.469 928.281 446.469 930.969ZM511.022 931.13C511.022 933.71 509.625 935 506.83 935C504.967 935 503.73 934.086 503.121 932.259L495.973 910.812H469.528L462.379 932.259C461.77 934.086 460.533 935 458.67 935C455.875 935 454.478 933.71 454.478 931.13C454.478 930.664 454.567 930.18 454.746 929.679L478.719 857.761C479.471 855.504 480.815 854.375 482.75 854.375C484.685 854.375 486.029 855.504 486.781 857.761L510.754 929.679C510.933 930.18 511.022 930.664 511.022 931.13ZM493.285 902.75L482.75 871.145L472.215 902.75H493.285ZM575.522 858.352C575.522 859.141 575.272 859.911 574.77 860.664L551.281 895.924V930.969C551.281 933.656 549.938 935 547.25 935C544.562 935 543.219 933.656 543.219 930.969V895.924L519.73 860.664C519.228 859.911 518.978 859.141 518.978 858.352C518.978 857.277 519.408 856.346 520.268 855.557C521.128 854.733 522.095 854.321 523.17 854.321C524.496 854.321 525.571 854.93 526.395 856.149L547.25 887.431L568.105 856.149C568.929 854.93 570.004 854.321 571.33 854.321C572.405 854.321 573.373 854.733 574.233 855.557C575.093 856.346 575.522 857.277 575.522 858.352ZM704.522 920.326C704.522 921.115 704.218 921.957 703.609 922.853C701.1 926.436 697.696 929.356 693.396 931.614C689.132 933.871 684.796 935 680.389 935C670.678 935 662.687 930.593 656.416 921.778C650.826 913.858 648.031 904.828 648.031 894.688C648.031 884.547 650.826 875.517 656.416 867.597C662.687 858.782 670.678 854.375 680.389 854.375C684.796 854.375 689.132 855.504 693.396 857.761C697.696 860.019 701.1 862.939 703.609 866.522C704.218 867.418 704.522 868.26 704.522 869.049C704.522 870.124 704.093 871.073 703.233 871.897C702.408 872.722 701.441 873.134 700.33 873.134C699.649 873.134 698.825 872.811 697.858 872.166C696.926 871.485 696.37 870.84 696.191 870.231C696.155 870.16 695.779 869.747 695.063 868.995C690.691 864.623 685.8 862.438 680.389 862.438C675.408 862.438 670.839 864.355 666.683 868.189C662.992 871.557 660.233 875.803 658.405 880.927C656.864 885.227 656.094 889.814 656.094 894.688C656.094 899.561 656.864 904.147 658.405 908.447C660.233 913.572 662.974 917.818 666.629 921.186C670.785 925.02 675.372 926.938 680.389 926.938C685.764 926.938 690.655 924.752 695.063 920.38C695.385 920.129 695.761 919.735 696.191 919.197C696.227 918.66 696.765 918.033 697.804 917.316C698.879 916.6 699.721 916.241 700.33 916.241C701.441 916.241 702.408 916.653 703.233 917.477C704.093 918.302 704.522 919.251 704.522 920.326ZM768.969 894.688C768.969 904.327 766.711 913.088 762.196 920.971C756.821 930.324 749.673 935 740.75 935C731.828 935 724.679 930.324 719.304 920.971C714.789 913.088 712.531 904.327 712.531 894.688C712.531 885.048 714.789 876.287 719.304 868.404C724.679 859.051 731.828 854.375 740.75 854.375C749.673 854.375 756.821 859.051 762.196 868.404C766.711 876.287 768.969 885.048 768.969 894.688ZM760.906 894.688C760.906 889.993 760.315 885.586 759.133 881.465C757.735 876.592 755.585 872.399 752.683 868.888C749.099 864.588 745.122 862.438 740.75 862.438C736.378 862.438 732.401 864.588 728.817 868.888C725.915 872.399 723.765 876.592 722.368 881.465C721.185 885.586 720.594 889.993 720.594 894.688C720.594 899.382 721.185 903.789 722.368 907.91C723.765 912.783 725.915 916.976 728.817 920.487C732.401 924.787 736.378 926.938 740.75 926.938C745.122 926.938 749.099 924.787 752.683 920.487C755.585 916.976 757.735 912.783 759.133 907.91C760.315 903.789 760.906 899.382 760.906 894.688ZM833.522 930.915C833.522 932.026 833.11 932.993 832.286 933.817C831.462 934.642 830.495 935.054 829.384 935.054C828.345 935.054 827.413 934.642 826.589 933.817L794.876 902.105C793.694 900.922 793.103 899.812 793.103 898.772C793.103 896.049 794.715 894.688 797.94 894.688H809.281C813.725 894.688 817.523 893.111 820.676 889.958C823.83 886.804 825.406 883.006 825.406 878.562C825.406 874.119 823.83 870.321 820.676 867.167C817.523 864.014 813.725 862.438 809.281 862.438H790.469V930.969C790.469 933.656 789.125 935 786.438 935C783.75 935 782.406 933.656 782.406 930.969V858.352C782.406 855.701 783.732 854.375 786.384 854.375H809.281C815.946 854.375 821.644 856.74 826.374 861.47C831.104 866.2 833.469 871.898 833.469 878.562C833.469 885.227 831.104 890.925 826.374 895.655C821.644 900.385 815.946 902.75 809.281 902.75H806.916L832.286 928.12C833.11 928.944 833.522 929.876 833.522 930.915ZM897.969 930.969C897.969 933.656 896.625 935 893.938 935H850.938C849.863 935 848.913 934.606 848.089 933.817C847.3 932.993 846.906 932.044 846.906 930.969V858.406C846.906 857.331 847.3 856.4 848.089 855.611C848.913 854.787 849.863 854.375 850.938 854.375H893.938C896.625 854.375 897.969 855.719 897.969 858.406C897.969 861.094 896.625 862.438 893.938 862.438H854.969V890.656H893.938C896.625 890.656 897.969 892 897.969 894.688C897.969 897.375 896.625 898.719 893.938 898.719H854.969V926.938H893.938C896.625 926.938 897.969 928.281 897.969 930.969Z" fill="white"/>
<rect x="206" y="974" width="488" height="129" rx="12" fill="#FF7A00"/>
<path d="M348.772 1075.13C348.772 1077.71 347.375 1079 344.58 1079C342.717 1079 341.48 1078.09 340.871 1076.26L333.723 1054.81H307.278L300.129 1076.26C299.52 1078.09 298.283 1079 296.42 1079C293.625 1079 292.228 1077.71 292.228 1075.13C292.228 1074.66 292.317 1074.18 292.496 1073.68L316.469 1001.76C317.221 999.504 318.565 998.375 320.5 998.375C322.435 998.375 323.779 999.504 324.531 1001.76L348.504 1073.68C348.683 1074.18 348.772 1074.66 348.772 1075.13ZM331.035 1046.75L320.5 1015.14L309.965 1046.75H331.035ZM413.219 1074.97C413.219 1077.66 411.875 1079 409.188 1079H366.188C363.5 1079 362.156 1077.67 362.156 1075.02V1002.41C362.156 999.719 363.5 998.375 366.188 998.375C368.875 998.375 370.219 999.719 370.219 1002.41V1070.94H409.188C411.875 1070.94 413.219 1072.28 413.219 1074.97ZM477.719 1022.56C477.719 1029.23 475.354 1034.92 470.624 1039.65C465.894 1044.38 460.196 1046.75 453.531 1046.75H434.719V1074.97C434.719 1077.66 433.375 1079 430.688 1079C428 1079 426.656 1077.66 426.656 1074.97V1002.41C426.656 1001.33 427.05 1000.4 427.839 999.611C428.663 998.787 429.613 998.375 430.688 998.375H453.531C460.196 998.375 465.894 1000.74 470.624 1005.47C475.354 1010.2 477.719 1015.9 477.719 1022.56ZM469.656 1022.56C469.656 1018.12 468.08 1014.32 464.926 1011.17C461.773 1008.01 457.975 1006.44 453.531 1006.44H434.719V1038.69H453.531C457.975 1038.69 461.773 1037.11 464.926 1033.96C468.08 1030.8 469.656 1027.01 469.656 1022.56ZM536.844 1074.97C536.844 1077.66 535.5 1079 532.813 1079C530.125 1079 528.781 1077.66 528.781 1074.97V1042.72H499.219V1074.97C499.219 1077.66 497.875 1079 495.188 1079C492.5 1079 491.156 1077.66 491.156 1074.97V1002.41C491.156 999.719 492.5 998.375 495.188 998.375C497.875 998.375 499.219 999.719 499.219 1002.41V1034.66H528.781V1002.41C528.781 999.719 530.125 998.375 532.813 998.375C535.5 998.375 536.844 999.719 536.844 1002.41V1074.97ZM606.772 1075.13C606.772 1077.71 605.375 1079 602.58 1079C600.717 1079 599.48 1078.09 598.871 1076.26L591.723 1054.81H565.278L558.129 1076.26C557.52 1078.09 556.283 1079 554.42 1079C551.625 1079 550.228 1077.71 550.228 1075.13C550.228 1074.66 550.317 1074.18 550.496 1073.68L574.469 1001.76C575.221 999.504 576.565 998.375 578.5 998.375C580.435 998.375 581.779 999.504 582.531 1001.76L606.504 1073.68C606.683 1074.18 606.772 1074.66 606.772 1075.13ZM589.035 1046.75L578.5 1015.14L567.965 1046.75H589.035Z" fill="white"/>
<path fill-rule="evenodd" clip-rule="evenodd" d="M332.511 664.716C353.965 657.383 377.421 655.309 400.007 653.333C449.834 648.974 486.693 605.047 482.334 555.22C477.54 500.428 436.638 449.023 400.098 407.914C367.731 371.502 319.155 350.327 266.893 354.9C179.139 362.577 114.224 439.94 121.902 527.694C123.523 546.229 122.179 565.275 120.851 584.083C120.426 590.116 120.002 596.124 119.678 602.084C119.447 606.331 119.513 610.646 119.894 615.006C124.253 664.834 168.18 701.693 218.007 697.333C231.071 696.19 243.244 692.327 254.016 686.351C266.608 679.365 280.351 673.941 294.696 672.686C307.872 671.533 320.533 668.809 332.511 664.716ZM344.01 507.76C348.529 559.415 339.747 564.347 328.468 565.334C317.19 566.321 307.625 562.3 303.166 511.334C299.068 464.5 307.428 454.747 318.707 453.76C329.986 452.773 339.49 456.106 344.01 507.76ZM258.424 516.252C262.943 567.906 254.161 572.839 242.883 573.826C231.604 574.812 222.039 570.791 217.58 519.825C213.483 472.992 221.843 463.238 233.121 462.252C244.4 461.265 253.905 464.597 258.424 516.252Z" fill="#5EFF97"/>
<path fill-rule="evenodd" clip-rule="evenodd" d="M720.93 195.934C723.836 205.327 733.168 212 743 212C787.183 212 823 247.818 823 292C823 311.202 816.235 328.824 804.958 342.613C791.805 358.694 780.458 378.084 778.763 398.79C778.738 399.092 778.712 399.395 778.686 399.697C771.008 487.452 693.646 552.367 605.891 544.689C518.137 537.012 453.222 459.649 460.9 371.895C461.053 370.139 461.235 368.392 461.444 366.654C463.758 347.412 457.467 327.669 449.236 310.122C444.595 300.227 442 289.169 442 277.501C442 235.251 476.026 201.001 518 201.001C532.627 201.001 547.943 192.574 554.883 179.699C570.196 151.291 600.108 132 634.5 132C675.109 132 709.47 158.893 720.93 195.934ZM654.218 402.74C652.331 409.335 645.474 413.184 638.853 411.344C632.202 409.496 628.308 402.605 630.157 395.954L630.16 395.941C630.157 395.954 630.159 395.948 630.16 395.941L630.172 395.901L630.19 395.836C630.204 395.788 630.22 395.733 630.238 395.671C630.275 395.546 630.322 395.39 630.38 395.206C630.495 394.838 630.654 394.355 630.86 393.774C631.272 392.616 631.879 391.051 632.72 389.222C634.387 385.6 637.061 380.744 641.11 375.932C649.477 365.989 663.631 356.506 684.93 358.369C706.23 360.233 718.522 372.03 725.036 383.275C728.187 388.716 729.978 393.963 730.99 397.82C731.501 399.767 731.827 401.414 732.031 402.626C732.133 403.233 732.206 403.736 732.255 404.119C732.28 404.31 732.3 404.472 732.314 404.601C732.322 404.666 732.328 404.723 732.333 404.772L732.34 404.839L732.344 404.881C732.345 404.888 732.34 404.839 732.34 404.839L732.345 404.894C733.011 411.765 727.98 417.875 721.109 418.541C714.269 419.203 708.184 414.222 707.471 407.399L707.465 407.35L707.458 407.298C707.444 407.193 707.418 407.016 707.378 406.777C707.282 406.206 707.106 405.299 706.808 404.164C706.203 401.856 705.151 398.824 703.403 395.806C700.117 390.133 694.377 384.291 682.752 383.274C671.126 382.257 664.459 387.013 660.238 392.029C657.992 394.698 656.43 397.502 655.433 399.669C654.943 400.735 654.612 401.598 654.418 402.143C654.322 402.414 654.261 402.603 654.233 402.693L654.218 402.74ZM522.299 401.147C528.919 402.987 535.777 399.138 537.663 392.543L537.678 392.495C537.706 392.405 537.767 392.217 537.863 391.946C538.057 391.401 538.388 390.538 538.878 389.472C539.875 387.305 541.437 384.501 543.683 381.832C547.905 376.816 554.572 372.06 566.197 373.077C577.822 374.094 583.562 379.935 586.848 385.609C588.596 388.627 589.648 391.659 590.253 393.967C590.551 395.102 590.727 396.009 590.823 396.579C590.871 396.863 590.898 397.059 590.91 397.153L590.917 397.202C591.629 404.025 597.714 409.006 604.554 408.343C611.425 407.678 616.456 401.568 615.791 394.697L615.788 394.671C615.785 394.642 615.79 394.69 615.789 394.684L615.788 394.671L615.785 394.642L615.778 394.575C615.773 394.526 615.767 394.469 615.76 394.404C615.745 394.274 615.726 394.113 615.701 393.922C615.651 393.539 615.579 393.036 615.476 392.429C615.272 391.216 614.946 389.57 614.435 387.623C613.423 383.766 611.633 378.519 608.481 373.078C601.967 361.832 589.676 350.035 568.376 348.172C547.076 346.308 532.923 355.792 524.555 365.735C520.506 370.546 517.832 375.402 516.166 379.025C515.324 380.854 514.717 382.419 514.306 383.577C514.099 384.158 513.941 384.641 513.825 385.009C513.8 385.088 513.778 385.162 513.757 385.23C513.729 385.321 513.704 385.402 513.683 385.474C513.673 385.51 513.663 385.545 513.653 385.576C513.647 385.598 513.641 385.619 513.635 385.638L513.617 385.703L513.609 385.731L513.606 385.744C513.604 385.75 513.66 385.554 513.653 385.576L513.602 385.756C511.754 392.408 515.647 399.298 522.299 401.147Z" fill="#FF5F5F"/>
<path fill-rule="evenodd" clip-rule="evenodd" d="M407.23 171.151C408.797 179.285 403.472 187.15 395.337 188.717C375.677 192.503 356.804 198.495 338.983 206.427C331.415 209.795 322.549 206.391 319.18 198.822C315.811 191.254 319.216 182.388 326.785 179.019C346.668 170.169 367.729 163.482 389.664 159.258C397.799 157.691 405.663 163.016 407.23 171.151ZM243.346 255.962C249.685 261.295 250.502 270.757 245.169 277.097C232.502 292.156 221.509 308.662 212.473 326.33C208.701 333.706 199.664 336.627 192.288 332.855C184.913 329.083 181.991 320.046 185.764 312.67C195.841 292.965 208.097 274.564 222.211 257.785C227.544 251.446 237.006 250.629 243.346 255.962ZM677.629 594.343C684.343 599.196 685.852 608.573 680.999 615.287C667.541 633.907 651.934 650.87 634.543 665.812C628.259 671.21 618.789 670.493 613.39 664.209C607.991 657.925 608.709 648.455 614.993 643.056C630.602 629.645 644.609 614.422 656.685 597.714C661.538 590.999 670.914 589.49 677.629 594.343ZM524.259 709.879C526.193 717.935 521.231 726.033 513.175 727.967C491.292 733.221 468.461 736 445.001 736C436.716 736 430.001 729.284 430.001 721C430.001 712.716 436.716 706 445.001 706C466.084 706 486.565 703.503 506.171 698.796C514.227 696.862 522.325 701.824 524.259 709.879Z" fill="#E0E0E0"/>
</svg>
